<svg xmlns="http://www.w3.org/2000/svg" xmlns:xlink="http://www.w3.org/1999/xlink" width="2000" zoomAndPan="magnify" viewBox="0 0 1500 1499.999933" height="2000" preserveAspectRatio="xMidYMid meet" version="1.0"><defs><g/><clipPath id="6bf4c7bcb2"><path d="M 718 738 L 781 738 L 781 837.535156 L 718 837.535156 Z M 718 738 " clip-rule="nonzero"/></clipPath><clipPath id="44d49e52e4"><path d="M 693.011719 771 L 713 771 L 713 776 L 693.011719 776 Z M 693.011719 771 " clip-rule="nonzero"/></clipPath><clipPath id="319871a13e"><path d="M 747 716.035156 L 753 716.035156 L 753 736 L 747 736 Z M 747 716.035156 " clip-rule="nonzero"/></clipPath></defs><g clip-path="url(#6bf4c7bcb2)"><path fill="#8ddbd5" d="M 771.566406 747.882812 C 765.835938 742.074219 758.171875 738.816406 750.023438 738.714844 C 749.898438 738.714844 749.769531 738.714844 749.640625 738.714844 C 732.964844 738.714844 719.164062 752.160156 718.804688 768.863281 C 718.628906 776.402344 721.226562 783.710938 726.0625 789.4375 C 732.503906 797.078125 735.738281 800.921875 735.738281 810.21875 L 735.738281 827.175781 C 735.738281 828.296875 736.65625 829.214844 737.777344 829.214844 L 739.328125 829.214844 C 740.273438 834.027344 744.550781 837.691406 749.640625 837.691406 C 754.734375 837.691406 759.011719 834.050781 759.957031 829.214844 L 761.507812 829.214844 C 762.628906 829.214844 763.546875 828.296875 763.546875 827.175781 L 763.546875 810.21875 C 763.546875 800.949219 766.753906 797.128906 773.144531 789.539062 L 773.273438 789.386719 C 777.933594 783.835938 780.503906 776.808594 780.503906 769.550781 C 780.480469 761.378906 777.320312 753.6875 771.566406 747.882812 Z M 749.640625 833.617188 C 746.816406 833.617188 744.398438 831.785156 743.53125 829.214844 L 755.753906 829.214844 C 754.886719 831.785156 752.46875 833.617188 749.640625 833.617188 Z M 759.472656 825.140625 L 739.8125 825.140625 L 739.8125 820.734375 L 759.472656 820.734375 Z M 759.472656 816.660156 L 739.8125 816.660156 L 739.8125 812.253906 L 759.472656 812.253906 Z M 753.511719 808.207031 L 745.722656 808.207031 L 745.722656 788.214844 C 745.722656 787.757812 745.566406 787.300781 745.261719 786.941406 L 738.921875 779.023438 L 738.921875 771.691406 L 743.378906 774.667969 C 744.191406 775.203125 745.261719 775.101562 745.949219 774.414062 L 749.796875 770.570312 L 755.167969 774.59375 C 755.882812 775.128906 756.898438 775.128906 757.613281 774.59375 L 761.125 771.945312 L 761.125 778.871094 L 753.664062 786.332031 C 753.285156 786.714844 753.054688 787.25 753.082031 787.808594 Z M 770.140625 786.789062 L 770.015625 786.941406 C 763.851562 794.25 759.980469 798.859375 759.496094 808.207031 L 757.585938 808.207031 L 757.179688 788.625 L 764.617188 781.1875 C 764.996094 780.804688 765.199219 780.296875 765.199219 779.738281 L 765.199219 767.871094 C 765.199219 767.105469 764.769531 766.394531 764.082031 766.039062 C 763.394531 765.679688 762.554688 765.757812 761.941406 766.242188 L 756.390625 770.417969 L 750.839844 766.242188 C 750.023438 765.628906 748.902344 765.707031 748.164062 766.417969 L 744.269531 770.316406 L 738.03125 766.164062 C 737.394531 765.757812 736.605469 765.707031 735.941406 766.0625 C 735.28125 766.417969 734.875 767.105469 734.875 767.871094 L 734.875 779.738281 C 734.875 780.195312 735.027344 780.652344 735.332031 781.011719 L 741.671875 788.929688 L 741.671875 808.207031 L 739.761719 808.207031 C 739.277344 798.808594 735.382812 794.175781 729.167969 786.816406 C 724.96875 781.824219 722.726562 775.484375 722.878906 768.941406 C 723.210938 754.324219 735.355469 742.609375 749.972656 742.789062 C 757.050781 742.863281 763.699219 745.691406 768.691406 750.734375 C 773.679688 755.773438 776.429688 762.472656 776.429688 769.550781 C 776.40625 775.839844 774.191406 781.976562 770.140625 786.789062 Z M 770.140625 786.789062 " fill-opacity="1" fill-rule="nonzero"/></g><path fill="#8ddbd5" d="M 804.949219 771.054688 L 789.851562 771.054688 C 788.730469 771.054688 787.8125 771.96875 787.8125 773.089844 C 787.8125 774.210938 788.730469 775.128906 789.851562 775.128906 L 804.949219 775.128906 C 806.070312 775.128906 806.988281 774.210938 806.988281 773.089844 C 806.988281 771.96875 806.070312 771.054688 804.949219 771.054688 Z M 804.949219 771.054688 " fill-opacity="1" fill-rule="nonzero"/><g clip-path="url(#44d49e52e4)"><path fill="#8ddbd5" d="M 712.183594 773.089844 C 712.183594 771.96875 711.269531 771.054688 710.148438 771.054688 L 695.046875 771.054688 C 693.925781 771.054688 693.011719 771.96875 693.011719 773.089844 C 693.011719 774.210938 693.925781 775.128906 695.046875 775.128906 L 710.148438 775.128906 C 711.269531 775.128906 712.183594 774.238281 712.183594 773.089844 Z M 712.183594 773.089844 " fill-opacity="1" fill-rule="nonzero"/></g><path fill="#8ddbd5" d="M 779.613281 799.851562 C 778.824219 799.0625 777.527344 799.0625 776.734375 799.851562 C 775.945312 800.644531 775.945312 801.941406 776.734375 802.730469 L 787.40625 813.398438 C 787.8125 813.808594 788.320312 813.984375 788.855469 813.984375 C 789.390625 813.984375 789.902344 813.78125 790.308594 813.398438 C 791.097656 812.609375 791.097656 811.3125 790.308594 810.523438 Z M 779.613281 799.851562 " fill-opacity="1" fill-rule="nonzero"/><path fill="#8ddbd5" d="M 709.691406 732.808594 C 708.898438 733.597656 708.898438 734.894531 709.691406 735.683594 L 720.359375 746.355469 C 720.765625 746.761719 721.277344 746.9375 721.808594 746.9375 C 722.320312 746.9375 722.855469 746.734375 723.261719 746.355469 C 724.050781 745.5625 724.050781 744.265625 723.261719 743.476562 L 712.59375 732.808594 C 711.777344 732.015625 710.503906 732.015625 709.691406 732.808594 Z M 709.691406 732.808594 " fill-opacity="1" fill-rule="nonzero"/><g clip-path="url(#319871a13e)"><path fill="#8ddbd5" d="M 747.960938 718.140625 L 747.960938 733.238281 C 747.960938 734.359375 748.878906 735.277344 750 735.277344 C 751.121094 735.277344 752.035156 734.359375 752.035156 733.238281 L 752.035156 718.140625 C 752.035156 717.019531 751.121094 716.101562 750 716.101562 C 748.878906 716.101562 747.960938 717.019531 747.960938 718.140625 Z M 747.960938 718.140625 " fill-opacity="1" fill-rule="nonzero"/></g><path fill="#8ddbd5" d="M 787.40625 732.808594 L 776.734375 743.476562 C 775.945312 744.265625 775.945312 745.5625 776.734375 746.355469 C 777.144531 746.761719 777.652344 746.9375 778.1875 746.9375 C 778.722656 746.9375 779.230469 746.734375 779.640625 746.355469 L 790.308594 735.683594 C 791.097656 734.894531 791.097656 733.597656 790.308594 732.808594 C 789.492188 732.015625 788.21875 732.015625 787.40625 732.808594 Z M 787.40625 732.808594 " fill-opacity="1" fill-rule="nonzero"/><path fill="#8ddbd5" d="M 720.382812 799.851562 L 709.714844 810.523438 C 708.925781 811.3125 708.925781 812.609375 709.714844 813.398438 C 710.121094 813.808594 710.632812 813.984375 711.167969 813.984375 C 711.703125 813.984375 712.210938 813.78125 712.617188 813.398438 L 723.289062 802.730469 C 724.078125 801.941406 724.078125 800.644531 723.289062 799.851562 C 722.472656 799.039062 721.175781 799.039062 720.382812 799.851562 Z M 720.382812 799.851562 " fill-opacity="1" fill-rule="nonzero"/><g fill="#ffffff" fill-opacity="1"><g transform="translate(1113.365455, 1406.472051)"><g><path d="M -1.109375 9.03125 C -1.929688 9.03125 -2.679688 8.890625 -3.359375 8.609375 C -4.046875 8.335938 -4.390625 8.023438 -4.390625 7.671875 C -4.390625 7.335938 -4.25 7.035156 -3.96875 6.765625 C -3.695312 6.492188 -3.398438 6.359375 -3.078125 6.359375 C -2.773438 6.359375 -2.546875 6.472656 -2.390625 6.703125 C -2.242188 6.941406 -2.109375 7.21875 -1.984375 7.53125 C -1.867188 7.84375 -1.734375 8.113281 -1.578125 8.34375 C -1.429688 8.582031 -1.207031 8.703125 -0.90625 8.703125 C -0.269531 8.703125 0.445312 8.46875 1.25 8 C 2.0625 7.53125 2.765625 6.789062 3.359375 5.78125 C 3.960938 4.769531 4.265625 3.457031 4.265625 1.84375 L 4.265625 -32.5625 L 7.171875 -32.5625 L 7.171875 -3.65625 C 7.171875 -1.40625 6.882812 0.515625 6.3125 2.109375 C 5.738281 3.710938 5.007812 5.023438 4.125 6.046875 C 3.238281 7.078125 2.328125 7.832031 1.390625 8.3125 C 0.460938 8.789062 -0.367188 9.03125 -1.109375 9.03125 Z M -1.109375 9.03125 "/></g></g></g></svg>